<svg width="32" height="10" viewBox="0 0 32 10" fill="none" xmlns="http://www.w3.org/2000/svg">
<path d="M0.0568182 9V0.272727H3.00568C3.69034 0.272727 4.25 0.396307 4.68466 0.643466C5.12216 0.887784 5.44602 1.21875 5.65625 1.63636C5.86648 2.05398 5.97159 2.51989 5.97159 3.03409C5.97159 3.5483 5.86648 4.01562 5.65625 4.43608C5.44886 4.85653 5.12784 5.19176 4.69318 5.44176C4.25852 5.68892 3.7017 5.8125 3.02273 5.8125H0.909091V4.875H2.98864C3.45739 4.875 3.83381 4.79403 4.1179 4.6321C4.40199 4.47017 4.60795 4.25142 4.7358 3.97585C4.86648 3.69744 4.93182 3.38352 4.93182 3.03409C4.93182 2.68466 4.86648 2.37216 4.7358 2.09659C4.60795 1.82102 4.40057 1.60511 4.11364 1.44886C3.8267 1.28977 3.44602 1.21023 2.97159 1.21023H1.11364V9H0.0568182ZM8.54332 5.0625V9H7.53764V0.272727H8.54332V3.47727H8.62855C8.78196 3.1392 9.01207 2.87074 9.31889 2.67188C9.62855 2.47017 10.0405 2.36932 10.5547 2.36932C11.0007 2.36932 11.3913 2.45881 11.7266 2.63778C12.0618 2.81392 12.3217 3.08523 12.5064 3.4517C12.6939 3.81534 12.7876 4.27841 12.7876 4.84091V9H11.782V4.90909C11.782 4.3892 11.647 3.98722 11.3771 3.70312C11.1101 3.41619 10.7393 3.27273 10.2649 3.27273C9.93537 3.27273 9.63991 3.34233 9.37855 3.48153C9.12003 3.62074 8.91548 3.82386 8.76491 4.09091C8.61719 4.35795 8.54332 4.68182 8.54332 5.0625ZM17.2866 9.13636C16.6957 9.13636 16.1772 8.99574 15.7312 8.71449C15.288 8.43324 14.9414 8.03977 14.6914 7.53409C14.4442 7.02841 14.3207 6.4375 14.3207 5.76136C14.3207 5.07955 14.4442 4.48437 14.6914 3.97585C14.9414 3.46733 15.288 3.07244 15.7312 2.79119C16.1772 2.50994 16.6957 2.36932 17.2866 2.36932C17.8775 2.36932 18.3945 2.50994 18.8377 2.79119C19.2837 3.07244 19.6303 3.46733 19.8775 3.97585C20.1275 4.48437 20.2525 5.07955 20.2525 5.76136C20.2525 6.4375 20.1275 7.02841 19.8775 7.53409C19.6303 8.03977 19.2837 8.43324 18.8377 8.71449C18.3945 8.99574 17.8775 9.13636 17.2866 9.13636ZM17.2866 8.23295C17.7354 8.23295 18.1048 8.1179 18.3945 7.88778C18.6843 7.65767 18.8988 7.35511 19.038 6.98011C19.1772 6.60511 19.2468 6.19886 19.2468 5.76136C19.2468 5.32386 19.1772 4.91619 19.038 4.53835C18.8988 4.16051 18.6843 3.85511 18.3945 3.62216C18.1048 3.3892 17.7354 3.27273 17.2866 3.27273C16.8377 3.27273 16.4684 3.3892 16.1786 3.62216C15.8888 3.85511 15.6744 4.16051 15.5352 4.53835C15.396 4.91619 15.3263 5.32386 15.3263 5.76136C15.3263 6.19886 15.396 6.60511 15.5352 6.98011C15.6744 7.35511 15.8888 7.65767 16.1786 7.88778C16.4684 8.1179 16.8377 8.23295 17.2866 8.23295ZM24.6342 2.45455V3.30682H21.2422V2.45455H24.6342ZM22.2308 0.886364H23.2365V7.125C23.2365 7.40909 23.2777 7.62216 23.3601 7.7642C23.4453 7.90341 23.5533 7.99716 23.6839 8.04545C23.8175 8.09091 23.9581 8.11364 24.1058 8.11364C24.2166 8.11364 24.3075 8.10795 24.3786 8.09659C24.4496 8.08239 24.5064 8.07102 24.549 8.0625L24.7536 8.96591C24.6854 8.99148 24.5902 9.01705 24.468 9.04261C24.3459 9.07102 24.1911 9.08523 24.0036 9.08523C23.7195 9.08523 23.4411 9.02415 23.1683 8.90199C22.8984 8.77983 22.674 8.59375 22.495 8.34375C22.3189 8.09375 22.2308 7.77841 22.2308 7.39773V0.886364ZM28.7358 9.13636C28.1449 9.13636 27.6264 8.99574 27.1804 8.71449C26.7372 8.43324 26.3906 8.03977 26.1406 7.53409C25.8935 7.02841 25.7699 6.4375 25.7699 5.76136C25.7699 5.07955 25.8935 4.48437 26.1406 3.97585C26.3906 3.46733 26.7372 3.07244 27.1804 2.79119C27.6264 2.50994 28.1449 2.36932 28.7358 2.36932C29.3267 2.36932 29.8438 2.50994 30.2869 2.79119C30.733 3.07244 31.0795 3.46733 31.3267 3.97585C31.5767 4.48437 31.7017 5.07955 31.7017 5.76136C31.7017 6.4375 31.5767 7.02841 31.3267 7.53409C31.0795 8.03977 30.733 8.43324 30.2869 8.71449C29.8438 8.99574 29.3267 9.13636 28.7358 9.13636ZM28.7358 8.23295C29.1847 8.23295 29.554 8.1179 29.8438 7.88778C30.1335 7.65767 30.348 7.35511 30.4872 6.98011C30.6264 6.60511 30.696 6.19886 30.696 5.76136C30.696 5.32386 30.6264 4.91619 30.4872 4.53835C30.348 4.16051 30.1335 3.85511 29.8438 3.62216C29.554 3.3892 29.1847 3.27273 28.7358 3.27273C28.2869 3.27273 27.9176 3.3892 27.6278 3.62216C27.3381 3.85511 27.1236 4.16051 26.9844 4.53835C26.8452 4.91619 26.7756 5.32386 26.7756 5.76136C26.7756 6.19886 26.8452 6.60511 26.9844 6.98011C27.1236 7.35511 27.3381 7.65767 27.6278 7.88778C27.9176 8.1179 28.2869 8.23295 28.7358 8.23295Z" fill="black"/>
</svg>
